<svg width="60" height="60" viewBox="0 0 60 60" fill="none" xmlns="http://www.w3.org/2000/svg">
<rect width="60" height="60" rx="30" fill="#B5B1FF"/>
<path d="M23.1501 23.0767C23.2888 22.9824 23.4072 22.8611 23.4981 22.7201C23.5889 22.579 23.6505 22.4212 23.6791 22.2558C23.7077 22.0905 23.7027 21.9211 23.6644 21.7578C23.6261 21.5944 23.5553 21.4404 23.4563 21.305C23.3572 21.1696 23.2319 21.0555 23.0878 20.9695C22.9438 20.8835 22.7839 20.8274 22.6176 20.8046C22.4514 20.7817 22.2823 20.7926 22.1204 20.8365C21.9584 20.8803 21.807 20.9564 21.6751 21.06L23.1501 23.0767ZM17.0834 40L15.8484 40.1967C15.8929 40.4719 16.0281 40.7243 16.2326 40.9138C16.437 41.1033 16.6989 41.2191 16.9767 41.2426C17.2545 41.2662 17.5321 41.1962 17.7656 41.0439C17.999 40.8915 18.1748 40.6655 18.2651 40.4017L17.0834 40ZM27.5534 32.3984C27.8677 32.2923 28.1269 32.0657 28.2742 31.7685C28.4214 31.4712 28.4445 31.1277 28.3384 30.8134C28.2323 30.4991 28.0057 30.2398 27.7085 30.0926C27.4112 29.9454 27.0677 29.9223 26.7534 30.0284L27.5534 32.3984ZM33.1234 16.935L33.5284 17.445L35.4884 15.8934L35.0834 15.3834L33.1234 16.935ZM36.7401 19.1434L37.3734 19.1817L37.5284 16.6867L36.8951 16.6484L36.7401 19.1434ZM38.9351 22.4034L38.5967 22.9534L40.7251 24.265L41.0651 23.715L38.9351 22.4034ZM38.0684 26.57L38.2334 27.2034L40.6517 26.5717L40.4851 25.9367L38.0684 26.57ZM35.8917 29.725L35.2784 29.555L34.6117 31.965L35.2234 32.135L35.8917 29.725ZM31.7034 30.1284L31.1734 30.4817L32.5601 32.5617L33.0901 32.2084L31.7034 30.1284ZM28.1634 28.8184L28.1234 28.1634L25.6267 28.3167L25.6684 28.9717L28.1634 28.8184ZM26.4917 24.895L25.9984 24.4784L24.3851 26.3867L24.8784 26.8034L26.4917 24.895ZM26.4801 20.9284L27.0684 20.6934L26.1401 18.3717L25.5517 18.6067L26.4801 20.9284ZM29.5901 18.0784L29.8151 17.4667L27.4684 16.6034L27.2451 17.2134L29.5901 18.0784ZM27.0684 20.6934C27.6134 20.4767 28.2451 20.25 28.7117 19.765L26.9084 18.0317C26.9234 18.0184 26.9167 18.035 26.8034 18.0917C26.5857 18.193 26.3645 18.2864 26.1401 18.3717L27.0684 20.6934ZM27.2451 17.2134C27.1625 17.4479 27.0724 17.6796 26.9751 17.9084C26.9167 18.0334 26.8967 18.045 26.9084 18.0317L28.7117 19.765C29.1734 19.285 29.3817 18.645 29.5901 18.0784L27.2451 17.2134ZM25.9984 24.4767C25.0134 23.6434 24.3851 23.11 24.0001 22.6734C23.8865 22.5552 23.7911 22.421 23.7167 22.275C23.7056 22.2484 23.7017 22.2373 23.7051 22.2417V22.2517L21.2317 21.8917C21.0817 22.9084 21.5817 23.71 22.1251 24.3284C22.6601 24.9334 23.4617 25.6067 24.3851 26.3867L25.9984 24.4767ZM25.5501 18.6067C24.4534 19.045 23.4934 19.4234 22.8051 19.83C22.0967 20.2467 21.3817 20.8634 21.2317 21.8917L23.7051 22.2517L23.6984 22.2684L23.7101 22.2534C23.8168 22.1455 23.9393 22.0545 24.0734 21.9834C24.5567 21.7 25.3034 21.3984 26.4801 20.9284L25.5501 18.6067ZM28.1201 28.1634C28.0834 27.5484 28.0651 26.8834 27.7701 26.2917L25.5317 27.405L25.5401 27.43C25.5478 27.45 25.5562 27.4945 25.5651 27.5634C25.5884 27.7234 25.6017 27.9384 25.6251 28.3167L28.1201 28.1634ZM24.8767 26.8034C25.1601 27.045 25.3201 27.18 25.4317 27.2917C25.4795 27.3395 25.5089 27.3712 25.5201 27.3867L25.5317 27.405L27.7701 26.2917C27.4734 25.695 26.9534 25.285 26.4901 24.895L24.8767 26.8034ZM31.1701 30.4817C30.1101 31.1884 29.4367 31.6317 28.9301 31.87C28.4367 32.1 28.4434 31.97 28.5551 32.0284L27.3834 34.2367C28.3201 34.7334 29.2501 34.4784 29.9867 34.1367C30.7084 33.7984 31.5701 33.22 32.5567 32.5617L31.1701 30.4817ZM25.6667 28.9717C25.7417 30.1984 25.8051 31.255 25.9684 32.0534C26.1334 32.8534 26.4667 33.7517 27.3834 34.2367L28.5551 32.0284C28.6484 32.0784 28.5351 32.1234 28.4167 31.5484C28.2967 30.9684 28.2451 30.1267 28.1634 28.8184L25.6667 28.9717ZM35.2784 29.555C34.7151 29.4 34.0667 29.1917 33.4017 29.2984L33.7984 31.7667C33.7717 31.7717 33.7834 31.76 33.9101 31.7834C34.0567 31.8134 34.2534 31.8667 34.6101 31.965L35.2784 29.555ZM33.0884 32.2084C33.3951 32.0034 33.5651 31.8917 33.6967 31.8184C33.8084 31.7567 33.8234 31.7634 33.7967 31.7684L33.4017 29.2984C32.7367 29.405 32.1884 29.8034 31.7017 30.1284L33.0884 32.2084ZM38.2317 27.205C38.5617 28.4717 38.7734 29.2884 38.8401 29.8767C38.9067 30.46 38.7834 30.4517 38.8567 30.3767L40.6584 32.11C41.3767 31.3617 41.4167 30.4034 41.3251 29.5934C41.2317 28.785 40.9601 27.76 40.6501 26.5717L38.2317 27.205ZM35.2217 32.1367C36.3651 32.4534 37.3651 32.7317 38.1551 32.8267C38.9634 32.9234 39.9251 32.8734 40.6584 32.11L38.8567 30.3767C38.9434 30.2867 38.9901 30.4084 38.4517 30.3434C37.8951 30.2767 37.1184 30.065 35.8901 29.7267L35.2217 32.1367ZM38.5951 22.9534C38.2784 23.47 37.9117 24.02 37.8151 24.68L40.2884 25.0417L40.2951 25.0184L40.3484 24.9017C40.466 24.6849 40.5917 24.4725 40.7251 24.265L38.5951 22.9534ZM40.4851 25.9367C40.4177 25.6943 40.3566 25.4497 40.3051 25.2034L40.2884 25.0667V25.0417L37.8151 24.68C37.7184 25.335 37.9101 25.9734 38.0651 26.5684L40.4851 25.9367ZM37.3734 19.1817C38.6384 19.2617 39.4384 19.315 39.9851 19.4334C40.1342 19.4593 40.2787 19.5076 40.4134 19.5767C40.4312 19.5889 40.4367 19.5923 40.4301 19.5867L40.4201 19.5717L42.6567 18.4584C42.1934 17.5267 41.3201 17.1667 40.5167 16.9917C39.7367 16.8217 38.7067 16.76 37.5284 16.6867L37.3734 19.1817ZM41.0651 23.715C41.6984 22.685 42.2467 21.795 42.5667 21.0517C42.8917 20.295 43.1167 19.38 42.6567 18.4584L40.4184 19.5717L40.4167 19.5634V19.5984C40.3911 19.7603 40.3416 19.9175 40.2701 20.065C40.0401 20.5984 39.6117 21.305 38.9351 22.4034L41.0651 23.715ZM33.5284 17.445C33.9017 17.9184 34.3001 18.4617 34.8867 18.775L36.0584 16.5667C36.0751 16.575 36.0534 16.57 35.9584 16.47C35.7951 16.2829 35.6378 16.0906 35.4867 15.8934L33.5284 17.445ZM36.8951 16.6484C36.6555 16.6375 36.4148 16.6181 36.1767 16.59C36.0534 16.5717 36.0401 16.5567 36.0584 16.5667L34.8867 18.775C35.4817 19.0917 36.1551 19.1067 36.7384 19.1417L36.8951 16.6484ZM35.0834 15.3834C34.3301 14.43 33.6784 13.6017 33.0917 13.05C32.5034 12.495 31.7001 11.9467 30.6567 12.1134L31.0517 14.5817C30.9184 14.6034 30.9584 14.4734 31.3767 14.87C31.7984 15.2667 32.3167 15.9167 33.1234 16.9367L35.0834 15.3834ZM29.8167 17.4667C30.2667 16.2467 30.5567 15.4667 30.8334 14.9567C31.1084 14.45 31.1867 14.56 31.0517 14.5817L30.6567 12.1134C29.6134 12.28 29.0217 13.0534 28.6351 13.7634C28.2517 14.4717 27.8901 15.4634 27.4701 16.6034L29.8167 17.4667ZM21.6734 21.0584C17.3284 24.2367 14.2467 30.1917 15.8467 40.1967L18.3151 39.8034C16.8317 30.5267 19.7117 25.5917 23.1501 23.0767L21.6734 21.0584ZM18.2651 40.4017C19.4584 36.885 23.1717 33.875 27.5534 32.3984L26.7517 30.0284C21.9451 31.65 17.4317 35.0784 15.8967 39.5984L18.2651 40.4017Z" fill="white"/>
<path d="M27.1335 36.6667C27.1335 36.6667 28.1902 38.9833 29.4902 39.7833C30.7902 40.5783 33.3335 40.4667 33.3335 40.4667C33.3335 40.4667 31.0168 41.5217 30.2168 42.8217C29.4202 44.1217 29.5335 46.6667 29.5335 46.6667C29.5335 46.6667 28.4768 44.35 27.1768 43.55C25.8785 42.7567 23.3335 42.8667 23.3335 42.8667C23.3335 42.8667 25.6502 41.8117 26.4502 40.5117C27.2468 39.2117 27.1335 36.6667 27.1335 36.6667ZM40.8002 35C40.8002 35 40.0968 36.545 39.2302 37.0767C38.3635 37.6083 36.6668 37.5333 36.6668 37.5333C36.6668 37.5333 38.2118 38.2367 38.7435 39.1033C39.2752 39.97 39.2002 41.6667 39.2002 41.6667C39.2002 41.6667 39.9035 40.1217 40.7702 39.59C41.6368 39.0583 43.3335 39.1333 43.3335 39.1333C43.3335 39.1333 41.7885 38.43 41.2568 37.5633C40.7252 36.6967 40.8002 35 40.8002 35Z" stroke="white" stroke-width="2" stroke-linejoin="round"/>
</svg>
