<svg width="60" height="60" viewBox="0 0 60 60" fill="none" xmlns="http://www.w3.org/2000/svg">
<rect width="60" height="60" rx="30" fill="#B5B1FF"/>
<path d="M35 22.9166H33.75C33.75 24.9877 32.0711 26.6666 30 26.6666V27.9166V29.1666C33.4518 29.1666 36.25 26.3684 36.25 22.9166H35ZM30 27.9166V26.6666C27.9289 26.6666 26.25 24.9877 26.25 22.9166H25H23.75C23.75 26.3684 26.5482 29.1666 30 29.1666V27.9166ZM25 22.9166H26.25C26.25 20.8456 27.9289 19.1666 30 19.1666V17.9166V16.6666C26.5482 16.6666 23.75 19.4648 23.75 22.9166H25ZM30 17.9166V19.1666C32.0711 19.1666 33.75 20.8456 33.75 22.9166H35H36.25C36.25 19.4648 33.4518 16.6666 30 16.6666V17.9166ZM25 32.9166V34.1666H35V32.9166V31.6666H25V32.9166ZM35 42.9166V41.6666H25V42.9166V44.1666H35V42.9166ZM25 42.9166V41.6666C22.9289 41.6666 21.25 39.9877 21.25 37.9166H20H18.75C18.75 41.3684 21.5482 44.1666 25 44.1666V42.9166ZM40 37.9166H38.75C38.75 39.9877 37.0711 41.6666 35 41.6666V42.9166V44.1666C38.4518 44.1666 41.25 41.3684 41.25 37.9166H40ZM35 32.9166V34.1666C37.0711 34.1666 38.75 35.8456 38.75 37.9166H40H41.25C41.25 34.4648 38.4518 31.6666 35 31.6666V32.9166ZM25 32.9166V31.6666C21.5482 31.6666 18.75 34.4648 18.75 37.9166H20H21.25C21.25 35.8456 22.9289 34.1666 25 34.1666V32.9166Z" fill="white"/>
<path d="M22.9201 27.3144C22.6572 26.8921 22.1639 26.6666 21.6665 26.6666C19.5954 26.6666 17.9165 24.9877 17.9165 22.9166C17.9165 20.8456 19.5954 19.1666 21.6665 19.1666C22.1639 19.1666 22.6572 18.9412 22.9201 18.5189C22.9317 18.5002 22.9434 18.4816 22.9552 18.463C23.3928 17.7721 23.1711 16.794 22.3582 16.7045C22.1311 16.6795 21.9003 16.6666 21.6665 16.6666C18.2147 16.6666 15.4165 19.4648 15.4165 22.9166C15.4165 26.3684 18.2147 29.1666 21.6665 29.1666C21.9003 29.1666 22.1311 29.1538 22.3582 29.1288C23.1711 29.0393 23.3928 28.0611 22.9552 27.3703C22.9434 27.3517 22.9317 27.3331 22.9201 27.3144Z" fill="white"/>
<path d="M17.847 40.5281C17.6578 40.2124 17.3238 40 16.9558 40H16.6665C14.5954 40 12.9165 38.321 12.9165 36.25C12.9165 34.1789 14.5954 32.5 16.6665 32.5H16.9558C17.3238 32.5 17.6578 32.2875 17.847 31.9718C18.3088 31.2013 17.8076 30 16.9093 30H16.6665C13.2147 30 10.4165 32.7982 10.4165 36.25C10.4165 39.7017 13.2147 42.5 16.6665 42.5H16.9093C17.8076 42.5 18.3088 41.2986 17.847 40.5281Z" fill="white"/>
<path d="M37.0445 27.3703C36.6068 28.0611 36.8286 29.0393 37.6415 29.1288C37.8686 29.1538 38.0994 29.1666 38.3332 29.1666C41.7849 29.1666 44.5832 26.3684 44.5832 22.9166C44.5832 19.4648 41.7849 16.6666 38.3332 16.6666C38.0994 16.6666 37.8686 16.6795 37.6415 16.7045C36.8286 16.794 36.6068 17.7721 37.0445 18.463C37.0563 18.4816 37.068 18.5002 37.0796 18.5189C37.3425 18.9412 37.8357 19.1666 38.3332 19.1666C40.4042 19.1666 42.0832 20.8456 42.0832 22.9166C42.0832 24.9877 40.4042 26.6666 38.3332 26.6666C37.8357 26.6666 37.3425 26.8921 37.0796 27.3144C37.068 27.3331 37.0563 27.3517 37.0445 27.3703Z" fill="white"/>
<path d="M42.1527 40.5281C41.6908 41.2986 42.192 42.5 43.0903 42.5H43.3332C46.7849 42.5 49.5832 39.7017 49.5832 36.25C49.5832 32.7982 46.7849 30 43.3332 30H43.0903C42.192 30 41.6908 31.2013 42.1527 31.9718C42.3419 32.2875 42.6758 32.5 43.0439 32.5H43.3332C45.4042 32.5 47.0832 34.1789 47.0832 36.25C47.0832 38.321 45.4042 40 43.3332 40H43.0439C42.6758 40 42.3419 40.2124 42.1527 40.5281Z" fill="white"/>
</svg>
