<svg width="60" height="60" viewBox="0 0 60 60" fill="none" xmlns="http://www.w3.org/2000/svg">
<rect width="60" height="60" rx="30" fill="#B5B1FF"/>
<path d="M46.6666 30C46.6666 20.795 39.2049 13.3334 29.9999 13.3334C20.7949 13.3334 13.3333 20.795 13.3333 30C13.3333 39.205 20.7949 46.6667 29.9999 46.6667C31.4033 46.6667 33.3333 46.86 33.3333 45C33.3333 43.985 32.8049 43.2017 32.2816 42.4234C31.5149 41.285 30.7533 40.1584 31.6666 38.3334C32.7783 36.1117 34.6299 36.1117 37.4699 36.1117C38.8883 36.1117 40.5549 36.1117 42.4999 35.8334C46.0016 35.3334 46.6666 33.18 46.6666 30Z" stroke="white" stroke-width="2.3"/>
<path d="M21.6665 35.0033L21.6815 35" stroke="white" stroke-width="2.3" stroke-linecap="round" stroke-linejoin="round"/>
<path d="M25.8333 26.6667C27.214 26.6667 28.3333 25.5475 28.3333 24.1667C28.3333 22.786 27.214 21.6667 25.8333 21.6667C24.4525 21.6667 23.3333 22.786 23.3333 24.1667C23.3333 25.5475 24.4525 26.6667 25.8333 26.6667Z" stroke="white" stroke-width="2.3"/>
<path d="M37.5 28.3334C38.8807 28.3334 40 27.2141 40 25.8334C40 24.4527 38.8807 23.3334 37.5 23.3334C36.1193 23.3334 35 24.4527 35 25.8334C35 27.2141 36.1193 28.3334 37.5 28.3334Z" stroke="white" stroke-width="2.3"/>
</svg>
