<svg width="155" height="26" viewBox="0 0 155 26" fill="none" xmlns="http://www.w3.org/2000/svg">
<path d="M13.56 25.85C10.83 25.85 8.52 25.3367 6.63 24.31C4.76333 23.2833 3.34 21.825 2.36 19.935C1.38 18.045 0.89 15.805 0.89 13.215C0.89 11.255 1.17 9.49333 1.73 7.93C2.31333 6.36667 3.14167 5.03667 4.215 3.94C5.31167 2.82 6.64167 1.96833 8.205 1.385C9.76833 0.778332 11.5417 0.474999 13.525 0.474999C14.8317 0.474999 16.1383 0.638332 17.445 0.964999C18.775 1.26833 20.0233 1.79333 21.19 2.54C21.5867 2.79667 21.8433 3.11167 21.96 3.485C22.1 3.85833 22.1233 4.24333 22.03 4.64C21.9367 5.01333 21.7617 5.34 21.505 5.62C21.2483 5.9 20.9217 6.075 20.525 6.145C20.1517 6.215 19.7317 6.12167 19.265 5.865C18.3783 5.35167 17.48 4.97833 16.57 4.745C15.66 4.51166 14.645 4.395 13.525 4.395C11.7983 4.395 10.34 4.745 9.15 5.445C7.96 6.12167 7.06167 7.11333 6.455 8.42C5.87167 9.72667 5.58 11.325 5.58 13.215C5.58 16.085 6.26833 18.2667 7.645 19.76C9.02167 21.2533 11.0633 22 13.77 22C14.7033 22 15.6483 21.9067 16.605 21.72C17.5617 21.5333 18.495 21.2767 19.405 20.95L18.53 22.945V15.49H14.68C14.0967 15.49 13.6417 15.3383 13.315 15.035C13.0117 14.7317 12.86 14.3233 12.86 13.81C12.86 13.2733 13.0117 12.865 13.315 12.585C13.6417 12.305 14.0967 12.165 14.68 12.165H20.455C21.0383 12.165 21.4817 12.3283 21.785 12.655C22.1117 12.9583 22.275 13.4017 22.275 13.985V22.49C22.275 23.0033 22.17 23.435 21.96 23.785C21.7733 24.135 21.4583 24.3917 21.015 24.555C19.9883 24.9283 18.81 25.2433 17.48 25.5C16.15 25.7333 14.8433 25.85 13.56 25.85ZM29.2165 25.745C28.5165 25.745 27.9798 25.535 27.6065 25.115C27.2332 24.695 27.0465 24.1117 27.0465 23.365V10.52C27.0465 9.75 27.2332 9.16667 27.6065 8.77C27.9798 8.35 28.5165 8.14 29.2165 8.14C29.9165 8.14 30.4532 8.35 30.8265 8.77C31.2232 9.16667 31.4215 9.75 31.4215 10.52V23.365C31.4215 24.1117 31.2348 24.695 30.8615 25.115C30.4882 25.535 29.9398 25.745 29.2165 25.745ZM29.2165 4.885C28.3998 4.885 27.7582 4.68667 27.2915 4.29C26.8482 3.87 26.6265 3.29833 26.6265 2.575C26.6265 1.82833 26.8482 1.25667 27.2915 0.859998C27.7582 0.463332 28.3998 0.264999 29.2165 0.264999C30.0565 0.264999 30.6982 0.463332 31.1415 0.859998C31.5848 1.25667 31.8065 1.82833 31.8065 2.575C31.8065 3.29833 31.5848 3.87 31.1415 4.29C30.6982 4.68667 30.0565 4.885 29.2165 4.885ZM39.3274 25.78C38.6274 25.78 38.079 25.5933 37.6824 25.22C37.309 24.8233 37.1224 24.2633 37.1224 23.54V11.675H35.5124C34.9524 11.675 34.5207 11.535 34.2174 11.255C33.914 10.9517 33.7624 10.5433 33.7624 10.03C33.7624 9.49333 33.914 9.085 34.2174 8.805C34.5207 8.525 34.9524 8.385 35.5124 8.385H38.3824L37.1224 9.54V8.35C37.1224 5.94667 37.729 4.15 38.9424 2.96C40.1557 1.74667 41.9057 1.035 44.1924 0.824998L45.3824 0.72C45.849 0.673332 46.2224 0.754999 46.5024 0.964999C46.7824 1.15167 46.9691 1.40833 47.0624 1.735C47.1557 2.03833 47.1674 2.35333 47.0974 2.68C47.0274 3.00667 46.8757 3.29833 46.6424 3.555C46.4324 3.78833 46.1524 3.91666 45.8024 3.94L45.3124 3.975C43.9824 4.06833 43.014 4.40667 42.4074 4.99C41.8007 5.57333 41.4974 6.46 41.4974 7.65V8.945L40.9374 8.385H44.4724C45.0324 8.385 45.4641 8.525 45.7674 8.805C46.0707 9.085 46.2224 9.49333 46.2224 10.03C46.2224 10.5433 46.0707 10.9517 45.7674 11.255C45.4641 11.535 45.0324 11.675 44.4724 11.675H41.4974V23.54C41.4974 25.0333 40.774 25.78 39.3274 25.78ZM55.5994 25.85C54.0827 25.85 52.811 25.5933 51.7844 25.08C50.781 24.5667 50.0344 23.82 49.5444 22.84C49.0544 21.8367 48.8094 20.6 48.8094 19.13V11.675H46.9894C46.4294 11.675 45.9977 11.535 45.6944 11.255C45.391 10.9517 45.2394 10.5433 45.2394 10.03C45.2394 9.49333 45.391 9.085 45.6944 8.805C45.9977 8.525 46.4294 8.385 46.9894 8.385H48.8094V5.2C48.8094 4.47667 48.996 3.92833 49.3694 3.555C49.766 3.18167 50.3144 2.995 51.0144 2.995C51.7144 2.995 52.251 3.18167 52.6244 3.555C52.9977 3.92833 53.1844 4.47667 53.1844 5.2V8.385H56.8944C57.4544 8.385 57.886 8.525 58.1894 8.805C58.4927 9.085 58.6444 9.49333 58.6444 10.03C58.6444 10.5433 58.4927 10.9517 58.1894 11.255C57.886 11.535 57.4544 11.675 56.8944 11.675H53.1844V18.885C53.1844 20.005 53.4294 20.845 53.9194 21.405C54.4094 21.965 55.2027 22.245 56.2994 22.245C56.696 22.245 57.046 22.21 57.3494 22.14C57.6527 22.07 57.921 22.0233 58.1544 22C58.4344 21.9767 58.6677 22.07 58.8544 22.28C59.041 22.4667 59.1344 22.8633 59.1344 23.47C59.1344 23.9367 59.0527 24.3567 58.8894 24.73C58.7494 25.08 58.481 25.325 58.0844 25.465C57.781 25.5583 57.3844 25.64 56.8944 25.71C56.4044 25.8033 55.9727 25.85 55.5994 25.85ZM63.992 25.5C63.222 25.5 62.627 25.3017 62.207 24.905C61.8103 24.485 61.612 23.89 61.612 23.12V3.205C61.612 2.435 61.8103 1.85167 62.207 1.455C62.627 1.035 63.222 0.824998 63.992 0.824998H72.392C74.1187 0.824998 75.5887 1.08167 76.802 1.595C78.0153 2.10833 78.937 2.84333 79.567 3.8C80.2203 4.75667 80.547 5.9 80.547 7.23C80.547 8.72333 80.1153 9.98333 79.252 11.01C78.3887 12.0367 77.2103 12.725 75.717 13.075V12.55C77.4437 12.8067 78.7853 13.46 79.742 14.51C80.6987 15.56 81.177 16.925 81.177 18.605C81.177 20.7983 80.4303 22.5017 78.937 23.715C77.467 24.905 75.4137 25.5 72.777 25.5H63.992ZM65.917 22.105H72.217C73.8037 22.105 74.9703 21.8017 75.717 21.195C76.4637 20.565 76.837 19.6317 76.837 18.395C76.837 17.135 76.4637 16.2017 75.717 15.595C74.9703 14.9883 73.8037 14.685 72.217 14.685H65.917V22.105ZM65.917 11.29H71.622C73.162 11.29 74.3053 10.9983 75.052 10.415C75.822 9.80833 76.207 8.92167 76.207 7.755C76.207 6.58833 75.822 5.71333 75.052 5.13C74.3053 4.52333 73.162 4.22 71.622 4.22H65.917V11.29ZM93.0937 25.85C91.3203 25.85 89.7803 25.4883 88.4737 24.765C87.167 24.0417 86.152 23.015 85.4287 21.685C84.7053 20.3317 84.3437 18.745 84.3437 16.925C84.3437 15.5483 84.542 14.3233 84.9387 13.25C85.3587 12.1533 85.9537 11.22 86.7237 10.45C87.4937 9.65667 88.4153 9.06167 89.4887 8.665C90.562 8.245 91.7637 8.035 93.0937 8.035C94.867 8.035 96.407 8.39667 97.7137 9.12C99.0203 9.84333 100.035 10.87 100.759 12.2C101.482 13.53 101.844 15.105 101.844 16.925C101.844 18.3017 101.634 19.5383 101.214 20.635C100.817 21.7317 100.234 22.6767 99.4637 23.47C98.6937 24.24 97.772 24.835 96.6987 25.255C95.6253 25.6517 94.4237 25.85 93.0937 25.85ZM93.0937 22.525C93.957 22.525 94.7153 22.315 95.3687 21.895C96.022 21.475 96.5237 20.8567 96.8737 20.04C97.247 19.2 97.4337 18.1617 97.4337 16.925C97.4337 15.0583 97.037 13.67 96.2437 12.76C95.4503 11.8267 94.4003 11.36 93.0937 11.36C92.2303 11.36 91.472 11.57 90.8187 11.99C90.1653 12.3867 89.652 13.005 89.2787 13.845C88.9287 14.6617 88.7537 15.6883 88.7537 16.925C88.7537 18.7683 89.1503 20.1683 89.9437 21.125C90.737 22.0583 91.787 22.525 93.0937 22.525ZM111.09 25.85C109.853 25.85 108.745 25.6167 107.765 25.15C106.808 24.66 106.05 24.0067 105.49 23.19C104.953 22.3733 104.685 21.4517 104.685 20.425C104.685 19.165 105.011 18.1733 105.665 17.45C106.318 16.7033 107.38 16.1667 108.85 15.84C110.32 15.5133 112.291 15.35 114.765 15.35H116.515V17.87H114.8C113.353 17.87 112.198 17.94 111.335 18.08C110.471 18.22 109.853 18.465 109.48 18.815C109.13 19.1417 108.955 19.6083 108.955 20.215C108.955 20.985 109.223 21.615 109.76 22.105C110.296 22.595 111.043 22.84 112 22.84C112.77 22.84 113.446 22.665 114.03 22.315C114.636 21.9417 115.115 21.44 115.465 20.81C115.815 20.18 115.99 19.4567 115.99 18.64V14.615C115.99 13.4483 115.733 12.6083 115.22 12.095C114.706 11.5817 113.843 11.325 112.63 11.325C111.953 11.325 111.218 11.4067 110.425 11.57C109.655 11.7333 108.838 12.0133 107.975 12.41C107.531 12.62 107.135 12.6783 106.785 12.585C106.458 12.4917 106.201 12.305 106.015 12.025C105.828 11.7217 105.735 11.395 105.735 11.045C105.735 10.695 105.828 10.3567 106.015 10.03C106.201 9.68 106.516 9.42333 106.96 9.26C108.033 8.81667 109.06 8.50167 110.04 8.315C111.043 8.12833 111.953 8.035 112.77 8.035C114.45 8.035 115.826 8.29167 116.9 8.805C117.996 9.31833 118.813 10.1 119.35 11.15C119.886 12.1767 120.155 13.5067 120.155 15.14V23.54C120.155 24.2633 119.98 24.8233 119.63 25.22C119.28 25.5933 118.778 25.78 118.125 25.78C117.471 25.78 116.958 25.5933 116.585 25.22C116.235 24.8233 116.06 24.2633 116.06 23.54V21.86H116.34C116.176 22.6767 115.85 23.3883 115.36 23.995C114.893 24.5783 114.298 25.0333 113.575 25.36C112.851 25.6867 112.023 25.85 111.09 25.85ZM126.835 25.78C126.112 25.78 125.552 25.5933 125.155 25.22C124.782 24.8233 124.595 24.2633 124.595 23.54V10.31C124.595 9.58667 124.782 9.03833 125.155 8.665C125.529 8.29167 126.054 8.105 126.73 8.105C127.407 8.105 127.932 8.29167 128.305 8.665C128.679 9.03833 128.865 9.58667 128.865 10.31V12.515H128.515C128.842 11.115 129.484 10.0533 130.44 9.33C131.397 8.60667 132.669 8.175 134.255 8.035C134.745 7.98833 135.13 8.11667 135.41 8.42C135.714 8.7 135.889 9.14333 135.935 9.75C135.982 10.3333 135.842 10.8117 135.515 11.185C135.212 11.535 134.745 11.745 134.115 11.815L133.345 11.885C131.922 12.025 130.849 12.4683 130.125 13.215C129.402 13.9383 129.04 14.965 129.04 16.295V23.54C129.04 24.2633 128.854 24.8233 128.48 25.22C128.107 25.5933 127.559 25.78 126.835 25.78ZM144.608 25.85C143.115 25.85 141.796 25.4883 140.653 24.765C139.533 24.0417 138.658 23.015 138.028 21.685C137.398 20.3317 137.083 18.745 137.083 16.925C137.083 15.0817 137.398 13.5067 138.028 12.2C138.658 10.87 139.533 9.84333 140.653 9.12C141.796 8.39667 143.115 8.035 144.608 8.035C146.031 8.035 147.268 8.385 148.318 9.085C149.391 9.785 150.115 10.7067 150.488 11.85H150.103V2.75C150.103 2.02666 150.29 1.47833 150.663 1.105C151.036 0.731665 151.573 0.544998 152.273 0.544998C152.973 0.544998 153.51 0.731665 153.883 1.105C154.28 1.47833 154.478 2.02666 154.478 2.75V23.54C154.478 24.2633 154.291 24.8233 153.918 25.22C153.545 25.5933 153.008 25.78 152.308 25.78C151.608 25.78 151.071 25.5933 150.698 25.22C150.325 24.8233 150.138 24.2633 150.138 23.54V20.81L150.523 21.86C150.173 23.0733 149.461 24.0417 148.388 24.765C147.315 25.4883 146.055 25.85 144.608 25.85ZM145.833 22.525C146.696 22.525 147.455 22.315 148.108 21.895C148.761 21.475 149.263 20.8567 149.613 20.04C149.986 19.2 150.173 18.1617 150.173 16.925C150.173 15.0583 149.776 13.67 148.983 12.76C148.19 11.8267 147.14 11.36 145.833 11.36C144.97 11.36 144.211 11.57 143.558 11.99C142.905 12.3867 142.391 13.005 142.018 13.845C141.668 14.6617 141.493 15.6883 141.493 16.925C141.493 18.7683 141.89 20.1683 142.683 21.125C143.476 22.0583 144.526 22.525 145.833 22.525Z" fill="#4A238C"/>
</svg>
