<svg width="1101" height="653" viewBox="0 0 1101 653" fill="none" xmlns="http://www.w3.org/2000/svg">
<path d="M262.896 8.2153C286.643 1.32366 312.275 -2.61484 335.674 1.98874C361.915 7.15166 387.055 24.0854 395.776 55.7729C403.046 82.1866 396.12 110.177 385.78 134.667C364.521 185.02 315.215 251.875 234.346 336.127L233.112 337.413L231.781 338.597C196.903 369.661 161.863 403.917 136.599 433.612C134.615 435.943 132.72 438.218 130.91 440.43C180.779 425.587 261.145 392.208 383.128 331.45C405.741 320.186 432.572 314.153 457.887 314.287C482.036 314.414 513.003 320.34 535.673 342.457C561.81 367.956 565.952 403.582 555.122 438.254C545.131 470.242 521.79 505.424 485.748 544.526C482.576 548.925 479.817 553.095 477.45 556.99C494.955 551.643 520.166 541.251 554.664 522.733C607.527 494.357 677.868 449.32 768.914 382.074L1040.56 158.042L1019.07 235.217L1100.14 226.229L1100.45 226.602L825.866 453.06L824.934 453.83L823.961 454.548C730.418 523.688 655.934 571.654 597.703 602.912C540.988 633.356 494.893 650.641 459.61 652.658C441.678 653.683 420.023 651.134 402.008 637.215C382.309 621.996 375.776 600.201 375.703 581.586C375.635 564.151 380.933 547.293 387.355 532.978C394.008 518.151 403.197 503.125 413.924 488.576L415.461 486.491L417.225 484.594C450.627 448.668 464.027 424.678 468.261 411.124C468.818 409.341 469.166 407.887 469.386 406.736C467.052 406.057 463.216 405.315 457.407 405.285C445.841 405.224 433.13 408.207 423.7 412.904C297.201 475.912 209.551 512.605 151.626 529.181C123.457 537.242 97.5978 541.992 76.1006 539.978C65.0121 538.939 51.3136 535.779 39.0166 526.813C25.4249 516.903 17.4535 502.726 14.9766 487.594C12.7474 473.976 15.2188 461.555 18.1094 452.361C21.1041 442.835 25.5221 433.729 30.252 425.469C39.6892 408.99 52.8717 391.59 67.2891 374.644C95.9594 340.946 133.79 304.093 169.879 271.873C248.249 190.068 287.502 133.482 301.945 99.2719C303.128 96.4704 304.068 93.9945 304.816 91.8237C300.423 92.5008 294.937 93.672 288.26 95.6098C271.446 100.49 250.509 109.227 226.401 122.279C178.254 148.346 120.779 189.822 63.0859 245.318L62.0371 244.228L80.1084 164.457L3.03223 176.829C64.8134 117.872 127.665 72.254 183.075 42.2544C211.2 27.0276 238.241 15.3709 262.896 8.2153ZM13.2441 193.502L0 179.734C0.202326 179.539 0.405071 179.345 0.607422 179.151L13.2441 193.502Z" fill="#FFD5C1"/>
</svg>
