<svg width="29" height="35" viewBox="0 0 29 35" fill="none" xmlns="http://www.w3.org/2000/svg">
<path d="M26.3204 2.56159C26.077 2.87904 25.6255 2.70092 25.3239 2.2177C24.9571 1.60046 24.5303 1.60928 24.0841 2.19126C23.4757 2.98487 23.317 2.86318 23.0877 1.84737C22.7191 0.136705 21.5975 0.284854 21.6857 2.03255C21.728 3.07306 21.6063 3.23178 20.8656 2.66391C20.3366 2.2583 19.9098 2.26712 19.8657 2.65334C19.8622 2.98665 19.0262 3.85786 18.0316 4.60739C16.6878 5.59323 16.4567 6.00414 17.0916 6.49089C17.5149 6.81538 17.6701 7.27038 17.4267 7.58782C17.2239 7.85236 13.1994 10.1433 8.49249 12.667C-1.096 17.8325 -0.974319 17.6738 2.3906 22.2696C4.20357 24.8356 14.6634 33.1067 17.4251 34.216C19.7883 35.1877 20.0352 34.5369 21.5218 21.3119C22.5869 11.3759 23.0948 8.74116 23.6662 10.1873C24.1477 11.3124 26.5409 10.711 27.6642 9.13617C28.9904 7.29676 28.2709 4.72901 26.5108 4.72373C25.7507 4.72902 25.6855 4.59499 26.3839 4.12235C26.92 3.86134 27.2198 3.25114 27.0646 2.79614C26.8688 2.39405 26.5637 2.24415 26.3204 2.56159ZM21.9415 9.369C21.8127 10.1944 21.5006 10.7111 21.236 10.5083C20.707 10.1027 20.3948 8.09924 20.841 7.51726C21.49 6.67074 22.1707 7.86467 21.9415 9.369ZM20.4795 17.7407C20.3719 19.0863 20.0933 20.2167 19.9064 20.2414C19.5325 20.2908 16.8606 14.4622 16.2187 12.122C15.8959 11.1185 16.1305 10.3743 16.8694 9.84872C18.051 9.07451 18.1039 9.11507 19.4055 12.129C20.1074 13.8432 20.6276 16.3422 20.4795 17.7407ZM14.1765 13.5805C14.0601 14.4993 18.4849 23.5199 19.4373 24.25C19.7547 24.4934 19.7618 26.3469 19.4197 28.4367C19.1181 30.4737 18.6085 32.015 18.3968 31.8528C17.6032 31.2443 13.3547 20.6788 12.2383 16.5468C11.5964 14.2065 11.5082 12.4588 11.9914 12.1573C12.9984 11.5012 14.2558 12.3812 14.1765 13.5805ZM13.7745 26.3769C14.9455 29.1228 15.6809 31.4507 15.3476 31.4472C13.8115 31.6976 11.5348 28.86 9.58422 24.1725C6.22633 16.3899 5.99706 15.3741 7.75181 14.6192C9.18558 13.9544 9.23849 13.9949 10.3866 17.6473C10.9915 19.7071 12.51 23.6434 13.7745 26.3769ZM5.86837 23.7598C4.77848 23.4283 1.34831 18.6984 1.71337 18.2223C3.17359 16.3176 3.94251 16.7391 5.27755 20.3667C6.0165 22.3613 6.31985 23.938 5.86837 23.7598Z" fill="#4A238C"/>
</svg>
