<svg width="1440" height="123" viewBox="0 0 1440 123" fill="none" xmlns="http://www.w3.org/2000/svg">
<path d="M1865 -0.236328C1850.66 69.4854 1784.96 122.162 1706.09 122.162C1662.49 122.162 1622.92 106.063 1593.82 79.8867C1582.32 93.6333 1564.21 102.498 1543.84 102.498C1523.69 102.498 1505.76 93.8206 1494.24 80.3232C1465.19 106.241 1425.81 122.162 1382.45 122.162C1338.85 122.162 1299.28 106.063 1270.18 79.8867C1258.68 93.6333 1240.57 102.498 1220.21 102.498C1200.06 102.498 1182.12 93.8212 1170.6 80.3242C1141.55 106.242 1102.18 122.162 1058.82 122.162C1015.22 122.162 975.645 106.062 946.547 79.8867C935.045 93.6335 916.938 102.498 896.571 102.498C876.421 102.498 858.483 93.8207 846.966 80.3232C817.914 106.241 778.54 122.162 735.182 122.162C691.58 122.162 652.008 106.063 622.91 79.8867C611.409 93.6333 593.302 102.498 572.936 102.498C552.786 102.498 534.848 93.8213 523.33 80.3242C494.278 106.242 454.903 122.162 411.545 122.162C367.944 122.162 328.371 106.063 299.273 79.8867C287.772 93.6333 269.665 102.498 249.299 102.498C229.149 102.498 211.211 93.8206 199.693 80.3232C170.642 106.241 131.268 122.162 87.9092 122.162C9.03645 122.162 -56.6563 69.4853 -71 -0.236328H1865Z" fill="#B5B1FF"/>
</svg>
