<svg width="50" height="50" viewBox="0 0 50 50" fill="none" xmlns="http://www.w3.org/2000/svg">
<rect width="50" height="50" rx="25" fill="#4D7198"/>
<g clip-path="url(#clip0_4115_759)">
<path fill-rule="evenodd" clip-rule="evenodd" d="M40.7438 16.6785C40.972 15.9277 40.7438 15.375 39.6506 15.375H36.0413C35.1228 15.375 34.6993 15.8521 34.4696 16.3788C34.4696 16.3788 32.634 20.7732 30.0339 23.6277C29.1924 24.4555 28.8101 24.7181 28.3509 24.7181C28.1213 24.7181 27.7761 24.4555 27.7761 23.7034V16.6785C27.7761 15.7765 27.5231 15.375 26.7586 15.375H21.0826C20.5093 15.375 20.1641 15.793 20.1641 16.1904C20.1641 17.0442 21.4649 17.2422 21.5983 19.6458V24.868C21.5983 26.0134 21.3879 26.221 20.9286 26.221C19.7049 26.221 16.728 21.8059 14.9611 16.7541C14.6188 15.771 14.2723 15.375 13.3496 15.375H9.7375C8.70625 15.375 8.5 15.8521 8.5 16.3788C8.5 17.3165 9.72375 21.975 14.1994 28.1364C17.1831 32.3439 21.3838 34.625 25.2104 34.625C27.5053 34.625 27.7885 34.119 27.7885 33.2459V30.0655C27.7885 29.0521 28.0058 28.85 28.7331 28.85C29.2694 28.85 30.1865 29.114 32.3288 31.1421C34.7763 33.547 35.1791 34.625 36.5569 34.625H40.1663C41.1975 34.625 41.7145 34.119 41.4175 33.118C41.0903 32.1225 39.9215 30.6774 38.3719 28.9627C37.5304 27.9865 36.2681 26.9346 35.8845 26.408C35.3496 25.7329 35.5023 25.4317 35.8845 24.8309C35.8845 24.8309 40.2845 18.7451 40.7424 16.6785" fill="white"/>
</g>
<defs>
<clipPath id="clip0_4115_759">
<rect width="33" height="33" fill="white" transform="translate(8.5 8.5)"/>
</clipPath>
</defs>
</svg>
