<svg width="50" height="50" viewBox="0 0 50 50" fill="none" xmlns="http://www.w3.org/2000/svg">
<path d="M48.6109 25C48.6109 20.3301 47.2261 15.7652 44.6317 11.8823C42.0373 7.99952 38.3497 4.97322 34.0354 3.18615C29.721 1.39909 24.9736 0.931507 20.3935 1.84255C15.8134 2.75359 11.6063 5.00233 8.30422 8.3044C5.00214 11.6065 2.7534 15.8136 1.84236 20.3937C0.931323 24.9738 1.3989 29.7212 3.18597 34.0356C4.97304 38.3499 7.99934 42.0375 11.8822 44.6319C15.765 47.2263 20.33 48.6111 24.9998 48.6111C31.2618 48.6111 37.2674 46.1235 41.6954 41.6956C46.1233 37.2676 48.6109 31.262 48.6109 25Z" fill="#FC3F1D"/>
<path d="M27.9583 14.7083H25.7917C21.8056 14.7083 19.7083 16.7222 19.7083 19.6944C19.7083 23.0694 21.1667 24.6528 24.1389 26.6389L26.5972 28.2917L19.5278 38.8889H14.25L20.5972 29.4444C16.9444 26.8194 14.9028 24.2778 14.9028 20C14.9028 14.5972 18.6667 10.9305 25.7639 10.9305H32.8472V38.8889H27.9444V14.7083H27.9583Z" fill="white"/>
</svg>
